<svg width="256" height="236" viewBox="0 0 256 236" fill="none" xmlns="http://www.w3.org/2000/svg">
<g clip-path="url(#clip0_105_46)">
<path d="M128.075 236.075L175.179 91.1043H80.9707L128.075 236.075Z" fill="#FAFAFA"/>
<path d="M128.075 236.074L80.9709 91.1041H14.9558L128.075 236.074Z" fill="#FAFAFA"/>
<path d="M14.9559 91.1044L0.641851 135.16C-0.663749 139.178 0.766193 143.58 4.1844 146.063L128.075 236.075L14.9559 91.1044Z" fill="#FAFAFA"/>
<path d="M14.9558 91.1045H80.9709L52.6 3.79025C51.1408 -0.703154 44.7847 -0.701935 43.3255 3.79025L14.9558 91.1045Z" fill="#FAFAFA"/>
<path d="M128.075 236.074L175.179 91.1041H241.194L128.075 236.074Z" fill="#FAFAFA"/>
<path d="M241.194 91.1044L255.508 135.16C256.814 139.178 255.384 143.58 251.965 146.063L128.075 236.075L241.194 91.1044Z" fill="#FAFAFA"/>
<path d="M241.194 91.1045H175.179L203.55 3.79025C205.009 -0.703154 211.365 -0.701935 212.824 3.79025L241.194 91.1045Z" fill="#FAFAFA"/>
</g>
<defs>
<clipPath id="clip0_105_46">
<rect width="256" height="236" fill="white"/>
</clipPath>
</defs>
</svg>
