<svg width="512" height="512" viewBox="0 0 512 512" fill="none" xmlns="http://www.w3.org/2000/svg">
<path d="M347.425 156.903C332.454 64.7226 297.144 0 256.052 0C214.959 0 179.649 64.7226 164.678 156.903H347.425ZM156.935 256C156.935 278.916 158.174 300.903 160.342 322.065H351.658C353.826 300.903 355.065 278.916 355.065 256C355.065 233.084 353.826 211.097 351.658 189.935H160.342C158.174 211.097 156.935 233.084 156.935 256ZM492.177 156.903C462.648 86.8129 402.868 32.6194 329.047 10.7355C354.239 45.6258 371.585 98.1677 380.67 156.903H492.177ZM182.953 10.7355C109.235 32.6194 49.3519 86.8129 19.9266 156.903H131.433C140.415 98.1677 157.761 45.6258 182.953 10.7355ZM503.224 189.935H384.8C386.968 211.613 388.207 233.806 388.207 256C388.207 278.194 386.968 300.387 384.8 322.065H503.121C508.799 300.903 512 278.916 512 256C512 233.084 508.799 211.097 503.224 189.935ZM123.896 256C123.896 233.806 125.135 211.613 127.303 189.935H8.87921C3.30389 211.097 0 233.084 0 256C0 278.916 3.30389 300.903 8.87921 322.065H127.2C125.135 300.387 123.896 278.194 123.896 256ZM164.678 355.097C179.649 447.277 214.959 512 256.052 512C297.144 512 332.454 447.277 347.425 355.097H164.678ZM329.15 501.265C402.868 479.381 462.751 425.187 492.28 355.097H380.774C371.688 413.832 354.342 466.374 329.15 501.265ZM19.9266 355.097C49.4551 425.187 109.235 479.381 183.056 501.265C157.864 466.374 140.519 413.832 131.433 355.097H19.9266Z" fill="#FAFAFA"/>
</svg>
