<svg width="256" height="256" viewBox="0 0 256 256" fill="none" xmlns="http://www.w3.org/2000/svg">
<g clip-path="url(#clip0_105_41)">
<path d="M218.123 218.127H180.192V158.724C180.192 144.559 179.939 126.324 160.464 126.324C140.708 126.324 137.685 141.758 137.685 157.693V218.123H99.7541V95.9665H136.168V112.661H136.678C144.103 99.965 157.909 92.3825 172.606 92.928C211.051 92.928 218.139 118.216 218.139 151.114L218.123 218.127ZM56.9551 79.2685C44.7982 79.2707 34.9414 69.4172 34.9392 57.2601C34.937 45.1029 44.7903 35.2459 56.9472 35.2437C69.104 35.2415 78.9609 45.095 78.9631 57.2522C78.9641 63.0902 76.646 68.6896 72.5187 72.8185C68.3914 76.9473 62.793 79.2675 56.9551 79.2685ZM75.9207 218.127H37.95V95.9665H75.9207V218.127ZM237.033 0.0182343H18.8895C8.57962 -0.0981158 0.12485 8.16054 -0.000976562 18.4706V237.524C0.120542 247.839 8.57463 256.106 18.8895 255.998H237.033C247.369 256.126 255.856 247.859 255.999 237.524V18.4548C255.852 8.12437 247.364 -0.133817 237.033 0.000767391" fill="#FAFAFA"/>
</g>
<defs>
<clipPath id="clip0_105_41">
<rect width="256" height="256" fill="white"/>
</clipPath>
</defs>
</svg>
