<svg width="256" height="209" viewBox="0 0 256 209" fill="none" xmlns="http://www.w3.org/2000/svg">
<path d="M256 25.45C246.581 29.6273 236.458 32.4505 225.834 33.7202C236.678 27.2198 245.006 16.927 248.927 4.66308C238.78 10.6813 227.539 15.0523 215.576 17.4083C205.995 7.2007 192.345 0.822001 177.239 0.822001C148.233 0.822001 124.716 24.3376 124.716 53.3423C124.716 57.4587 125.181 61.4674 126.077 65.3113C82.4258 63.121 43.7257 42.2114 17.8214 10.4359C13.3005 18.193 10.7104 27.2151 10.7104 36.8403C10.7104 55.0615 19.9835 71.1375 34.0762 80.5557C25.4661 80.2832 17.3682 77.9207 10.2863 73.9869C10.2825 74.206 10.2825 74.4261 10.2825 74.6471C10.2825 100.094 28.3867 121.322 52.4136 126.147C48.006 127.347 43.3662 127.989 38.5756 127.989C35.1915 127.989 31.901 127.66 28.6948 127.047C35.3778 147.913 54.7742 163.098 77.757 163.522C59.782 177.608 37.1354 186.005 12.5289 186.005C8.28987 186.005 4.10888 185.756 0 185.271C23.2431 200.173 50.8507 208.868 80.5109 208.868C177.117 208.868 229.944 128.837 229.944 59.4326C229.944 57.1553 229.893 54.8902 229.792 52.6381C240.053 45.2332 248.958 35.9826 256 25.45Z" fill="#FAFAFA"/>
</svg>
